<?xml version="1.0" standalone="no"?>
<!DOCTYPE svg PUBLIC "-//W3C//DTD SVG 20010904//EN"
 "http://www.w3.org/TR/2001/REC-SVG-20010904/DTD/svg10.dtd">
<svg version="1.0" xmlns="http://www.w3.org/2000/svg"
 width="450.000000pt" height="450.000000pt" viewBox="0 0 450.000000 450.000000"
 preserveAspectRatio="xMidYMid meet">
<metadata>
Created by potrace 1.11, written by Peter Selinger 2001-2013
</metadata>
<g transform="translate(0.000000,450.000000) scale(0.100000,-0.100000)"
fill="#000000" stroke="none">
<path d="M0 3551 c0 -58 1 -61 19 -49 15 9 25 9 46 0 33 -15 78 -17 55 -2 -8
5 -23 10 -34 10 -24 0 -66 45 -66 70 0 10 -4 22 -10 25 -6 4 -10 -17 -10 -54z"/>
<path d="M173 3473 c9 -2 23 -2 30 0 6 3 -1 5 -18 5 -16 0 -22 -2 -12 -5z"/>
<path d="M230 3456 c0 -2 11 -6 25 -8 14 -3 25 -1 25 3 0 5 -11 9 -25 9 -14 0
-25 -2 -25 -4z"/>
<path d="M428 3403 c7 -3 16 -2 19 1 4 3 -2 6 -13 5 -11 0 -14 -3 -6 -6z"/>
<path d="M0 3284 c0 -99 1 -105 23 -113 41 -17 132 -41 182 -50 74 -13 231
-50 305 -72 120 -36 180 -34 180 7 0 27 15 32 28 8 5 -8 20 -21 33 -28 14 -7
23 -19 21 -29 -3 -18 11 -25 83 -47 50 -14 101 -10 97 8 -1 8 4 12 15 10 11
-2 17 -12 16 -25 -2 -17 4 -22 35 -25 20 -3 45 -8 55 -12 13 -6 16 -5 11 8 -4
10 -1 16 9 16 16 0 47 -26 47 -39 0 -16 275 -84 340 -83 13 0 29 -6 35 -13 11
-15 77 -35 112 -35 17 0 21 4 16 16 -5 13 -3 14 13 6 10 -6 27 -20 37 -32 15
-18 25 -20 58 -15 29 5 39 3 39 -7 0 -18 88 -48 143 -48 47 0 71 17 61 43 -4
12 3 17 29 22 64 12 72 6 70 -51 -2 -50 -2 -52 35 -67 20 -9 60 -19 87 -22 28
-3 73 -12 100 -21 125 -37 154 -44 207 -49 31 -4 62 -13 69 -21 6 -8 24 -14
39 -14 15 0 53 -11 84 -25 31 -14 67 -25 80 -25 13 0 52 -8 87 -18 35 -11 118
-33 184 -51 66 -18 134 -36 150 -41 17 -5 62 -15 102 -22 39 -6 70 -15 67 -19
-2 -5 12 -11 33 -14 21 -3 55 -11 75 -17 20 -6 43 -8 51 -5 8 3 23 0 33 -7 11
-7 54 -21 97 -30 42 -10 80 -22 83 -27 3 -5 25 -9 50 -9 24 0 44 -4 44 -10 0
-5 16 -10 36 -10 27 0 37 5 41 20 6 24 16 25 48 4 29 -19 24 -34 -11 -34 -35
0 -21 -17 18 -23 42 -7 112 -23 163 -36 22 -5 49 -8 61 -5 12 3 26 -1 33 -10
8 -9 24 -16 37 -16 14 0 32 -4 42 -9 28 -14 84 -32 123 -40 19 -4 41 -11 47
-15 9 -5 12 14 12 71 l0 78 -82 22 c-46 12 -110 28 -143 36 -55 14 -208 54
-425 112 -102 28 -169 51 -187 66 -7 6 -13 31 -13 55 0 33 4 44 19 49 14 4 17
12 13 33 -2 15 -9 33 -15 40 -16 20 -75 48 -137 66 -30 8 -95 27 -145 41 -172
49 -360 95 -412 101 -43 6 -58 3 -88 -16 -27 -17 -34 -27 -29 -39 4 -9 9 -37
12 -62 5 -59 -6 -64 -96 -43 -37 8 -86 19 -110 24 -24 5 -48 12 -53 16 -6 3
-43 14 -82 24 -73 19 -105 28 -257 73 -47 13 -103 28 -125 31 -42 8 -97 23
-130 37 -44 19 -154 51 -240 69 -49 10 -106 25 -125 33 -19 8 -60 18 -90 22
-30 4 -61 11 -70 15 -23 12 -297 90 -316 90 -9 0 -37 6 -63 14 -182 57 -370
106 -402 106 -8 0 -32 9 -54 20 -21 11 -55 23 -74 26 -49 9 -130 30 -163 42
-14 6 -64 20 -110 31 -91 23 -150 40 -245 70 l-63 19 0 -104z m996 -272 c-9
-9 -37 8 -31 18 5 8 11 7 21 -1 8 -6 12 -14 10 -17z m681 -158 c-3 -3 -12 -4
-19 -1 -8 3 -5 6 6 6 11 1 17 -2 13 -5z m934 -255 c-2 -8 -4 -19 -4 -26 0 -6
-6 -9 -14 -7 -46 14 -44 12 -26 33 20 22 50 22 44 0z"/>
<path d="M928 3263 c6 -2 18 -2 25 0 6 3 1 5 -13 5 -14 0 -19 -2 -12 -5z"/>
<path d="M0 3030 c0 -5 12 -10 28 -10 21 0 24 2 12 10 -20 13 -40 13 -40 0z"/>
<path d="M2 2974 c3 -18 40 -33 133 -55 55 -13 93 -23 210 -54 55 -15 118 -30
140 -35 22 -4 67 -15 100 -25 33 -9 78 -21 100 -26 22 -5 65 -16 95 -25 30 -9
75 -20 100 -24 25 -5 63 -14 85 -20 22 -6 60 -15 85 -20 25 -5 70 -17 100 -26
30 -9 71 -18 90 -21 19 -2 44 -8 55 -13 22 -9 90 -27 150 -40 22 -4 85 -20
140 -35 103 -28 138 -37 215 -55 82 -19 139 -36 146 -43 4 -4 22 -7 40 -7 18
0 43 -4 56 -9 49 -18 105 -35 143 -42 22 -4 58 -12 80 -18 22 -5 67 -17 100
-25 33 -8 78 -20 100 -26 22 -6 58 -15 80 -19 22 -5 67 -16 100 -26 33 -9 78
-21 100 -25 22 -4 67 -16 100 -25 33 -10 76 -21 95 -25 19 -4 55 -13 80 -21
43 -13 44 -13 15 -17 -27 -3 -51 2 -141 29 -33 10 -112 27 -159 35 -16 3 -39
9 -50 14 -11 5 -31 11 -45 13 -14 3 -52 12 -85 22 -33 9 -80 21 -105 25 -56
10 -115 25 -127 33 -6 4 -34 11 -64 16 -30 5 -72 15 -94 21 -22 6 -60 16 -85
21 -25 5 -74 18 -110 28 -79 23 -218 59 -280 71 -25 6 -63 14 -85 19 -22 6
-67 16 -100 24 -33 7 -85 21 -115 30 -66 19 -209 56 -265 67 -22 5 -58 14 -80
20 -46 13 -148 39 -185 46 -14 3 -34 9 -45 14 -11 5 -45 14 -75 20 -30 5 -77
17 -105 24 -73 20 -224 57 -270 66 -53 11 -282 68 -321 80 -43 14 -46 13 -42
-12 2 -17 11 -24 33 -26 17 -2 34 -8 40 -13 5 -5 21 -9 36 -9 15 0 30 -4 33
-9 3 -5 23 -12 43 -15 63 -11 137 -28 158 -37 11 -4 37 -13 58 -19 20 -6 37
-13 37 -15 0 -6 -85 6 -105 15 -11 5 -36 11 -55 14 -19 2 -62 12 -95 21 -33 8
-80 19 -105 24 -25 5 -53 12 -62 16 -14 6 -18 2 -18 -18 0 -19 6 -26 28 -30
15 -3 72 -17 127 -32 55 -14 118 -30 140 -35 22 -5 83 -21 135 -36 52 -14 107
-29 123 -31 15 -3 30 -9 33 -14 9 -15 -32 -10 -109 12 -39 12 -92 25 -117 29
-25 5 -63 13 -85 19 -22 5 -60 14 -85 20 -59 13 -150 37 -172 46 -14 6 -18 2
-18 -17 0 -25 23 -37 100 -52 14 -3 52 -12 85 -21 64 -17 125 -31 190 -45 22
-4 67 -16 100 -25 33 -10 78 -21 100 -26 76 -15 117 -27 129 -39 8 -9 -2 -10
-44 -5 -30 4 -63 11 -72 16 -9 5 -30 9 -47 9 -16 0 -33 5 -36 10 -3 6 -19 10
-34 10 -15 0 -41 4 -57 9 -55 18 -139 39 -199 52 -33 6 -80 18 -105 25 -25 7
-60 15 -78 18 -30 5 -33 4 -30 -16 2 -14 13 -25 28 -29 61 -17 209 -53 250
-60 25 -5 63 -13 85 -19 22 -5 72 -16 110 -25 39 -9 86 -20 105 -25 19 -5 53
-13 75 -18 93 -22 141 -34 160 -42 11 -5 36 -11 55 -13 19 -3 62 -12 95 -22
33 -9 80 -20 105 -25 25 -4 63 -11 85 -15 22 -4 45 -11 50 -15 6 -4 46 -15 90
-25 44 -9 89 -21 100 -26 32 -14 -70 -4 -145 15 -71 18 -147 34 -198 43 -18 3
-35 9 -38 14 -3 5 -15 9 -27 9 -12 0 -58 10 -102 21 -44 11 -103 24 -130 29
-28 4 -79 15 -115 25 -36 10 -83 21 -105 25 -22 5 -56 13 -75 19 -52 14 -67
18 -155 36 -44 9 -89 21 -100 25 -11 5 -36 11 -55 14 -19 3 -61 12 -92 19
l-58 14 0 -23 c0 -18 7 -25 28 -29 15 -4 36 -9 47 -11 46 -12 152 -36 183 -41
18 -3 35 -9 38 -14 3 -5 21 -9 40 -9 19 0 67 -9 107 -21 39 -11 95 -24 122
-29 28 -4 75 -15 105 -25 30 -9 78 -20 105 -25 28 -5 66 -14 85 -19 19 -6 58
-15 85 -21 28 -7 68 -16 90 -22 54 -13 97 -24 183 -44 39 -10 69 -21 65 -25
-5 -5 -26 -4 -48 2 -89 21 -132 31 -175 38 -25 5 -79 18 -120 30 -41 11 -87
21 -102 21 -15 0 -37 4 -50 9 -13 5 -50 15 -83 21 -33 7 -105 23 -160 37 -55
13 -120 28 -145 33 -25 6 -67 17 -95 24 -27 8 -77 20 -110 27 -33 6 -85 18
-115 25 -30 8 -60 14 -67 14 -10 0 -13 -37 -13 -165 l0 -165 28 -6 c66 -14
121 -37 170 -70 28 -20 52 -40 52 -45 0 -5 16 -27 36 -49 20 -21 33 -44 29
-50 -3 -6 7 -23 22 -39 21 -21 43 -31 81 -36 76 -10 78 -28 3 -19 -36 4 -61 3
-61 -3 0 -5 8 -27 18 -49 10 -21 26 -91 36 -154 9 -63 22 -144 28 -180 6 -36
11 -126 11 -200 0 -127 -2 -141 -36 -240 -43 -129 -55 -249 -32 -307 12 -29
13 -53 7 -98 -8 -64 -5 -87 28 -179 35 -97 44 -207 26 -332 -8 -60 -18 -121
-22 -136 l-6 -28 216 0 c130 0 216 4 216 10 0 5 20 37 44 72 48 68 85 144 111
223 9 28 29 67 46 87 20 26 29 48 29 74 0 31 7 43 46 78 26 22 61 50 79 61 63
39 65 43 50 78 -16 40 -9 90 16 113 22 19 25 44 7 62 -7 7 -11 58 -10 152 1
141 1 141 32 190 44 69 94 115 159 147 47 23 69 27 141 27 76 1 91 -3 138 -29
93 -51 181 -186 197 -305 5 -30 8 -145 7 -255 -1 -204 -12 -288 -50 -377 -16
-38 -38 -54 -28 -20 3 9 10 37 16 62 7 25 16 50 20 55 5 6 8 116 6 245 -2 207
-4 240 -21 272 -10 21 -22 38 -27 38 -4 0 -8 13 -8 28 0 29 -20 54 -52 65 -12
4 -18 1 -18 -8 0 -8 -11 -17 -24 -21 -18 -4 -28 -17 -38 -47 -10 -32 -22 -45
-57 -64 -94 -49 -104 -83 -33 -118 66 -33 68 -39 29 -69 -40 -31 -65 -113 -48
-159 20 -52 -13 -79 -78 -67 -45 8 -61 3 -61 -19 0 -9 -9 -34 -19 -54 l-19
-38 25 -49 c35 -67 28 -80 -39 -73 -129 12 -224 -47 -249 -154 -14 -59 -34
-68 -70 -32 -29 29 -45 18 -63 -45 -9 -31 -21 -56 -27 -56 -14 0 -59 -50 -59
-66 0 -20 1166 -21 1173 -1 4 10 6 10 6 0 1 -8 17 -13 45 -13 l43 0 5 83 c2
45 8 89 13 97 4 7 8 30 8 49 0 20 4 44 9 55 7 13 6 26 -3 42 -10 20 -10 27 3
41 9 10 29 45 45 78 16 33 41 77 56 98 14 21 29 59 33 84 5 34 16 56 46 86 22
22 42 53 45 69 5 27 32 59 34 42 1 -5 3 -36 4 -69 1 -33 7 -79 14 -103 10 -37
9 -47 -10 -85 -12 -23 -35 -57 -50 -75 -16 -18 -29 -40 -29 -48 0 -8 -4 -13
-9 -9 -21 13 -22 -19 -1 -35 l22 -17 -24 -24 c-48 -47 -61 -157 -23 -189 8 -7
15 -28 15 -47 0 -19 4 -42 10 -52 6 -13 5 -24 -5 -37 -8 -11 -15 -22 -15 -26
0 -5 459 -8 1020 -8 l1021 0 24 25 25 24 0 336 c0 254 -3 335 -12 335 -9 0 -9
3 0 12 15 15 16 48 2 48 -6 0 -10 30 -10 70 0 40 4 70 10 70 6 0 10 27 10 61
0 56 -2 60 -20 54 -16 -5 -20 -2 -20 15 0 17 4 20 20 15 16 -5 20 -2 20 18 0
18 -5 23 -22 23 -14 -1 -24 6 -26 17 -3 15 1 17 22 11 22 -5 26 -3 26 15 0 15
-9 23 -32 29 -31 8 -33 11 -33 53 0 44 0 44 33 41 l32 -4 0 51 c0 44 -3 51
-19 51 -11 0 -23 5 -27 11 -3 6 -18 9 -32 6 -31 -6 -52 1 -52 17 0 14 67 9 76
-5 3 -5 16 -9 30 -9 19 0 24 5 24 25 0 22 -4 25 -34 25 -19 0 -38 5 -41 10 -3
6 -28 10 -56 10 -41 0 -49 3 -49 19 0 17 3 17 53 3 28 -8 69 -17 90 -19 l37
-5 0 50 c0 46 -2 50 -27 55 -16 3 -48 11 -73 17 -103 25 -153 31 -161 18 -5
-9 -13 -5 -28 13 -30 37 -11 45 61 25 35 -10 72 -22 83 -26 11 -5 36 -11 55
-14 19 -2 47 -8 62 -11 24 -6 28 -4 28 13 0 21 -17 27 -135 52 -51 10 -155 39
-165 45 -5 3 -15 -1 -23 -9 -13 -13 -16 -13 -29 2 -41 50 -41 50 4 39 24 -5
52 -13 63 -18 11 -4 43 -13 70 -19 28 -6 68 -16 90 -21 77 -20 125 -22 125 -6
0 14 -11 18 -95 37 -22 5 -56 13 -75 19 -137 39 -270 68 -293 64 -15 -3 -27
-1 -27 5 0 6 -21 31 -46 57 -26 25 -44 48 -42 51 3 2 36 -3 74 -11 38 -9 80
-19 94 -21 14 -3 34 -9 45 -14 11 -5 36 -11 55 -14 19 -2 62 -12 95 -21 63
-18 128 -32 183 -42 49 -8 39 13 -15 32 -27 10 -57 21 -68 25 -11 5 -36 11
-55 14 -49 7 -87 15 -145 31 -27 8 -70 19 -95 25 -25 6 -60 16 -78 22 -18 5
-57 8 -85 6 -33 -2 -76 4 -116 17 -53 17 -68 26 -88 58 -20 31 -28 37 -46 31
-26 -9 -137 -13 -155 -6 -7 2 -10 12 -7 23 4 12 -1 22 -17 30 -13 6 -27 18
-31 25 -4 8 -19 14 -32 14 -13 0 -26 4 -29 9 -3 4 -20 11 -37 15 -25 5 -30 10
-24 23 11 30 11 37 -5 40 -9 2 -27 -7 -40 -19 -24 -23 -46 -25 -85 -9 -33 14
-108 33 -150 38 -22 3 -44 9 -49 14 -6 5 -25 9 -42 9 -18 0 -35 4 -38 9 -3 4
-22 11 -43 14 -21 4 -63 14 -93 23 -30 9 -73 20 -95 24 -70 15 -119 27 -165
39 -25 7 -62 17 -82 22 -63 15 -110 27 -173 44 -33 9 -76 20 -95 25 -19 5 -71
19 -115 30 -44 12 -98 26 -120 30 -22 5 -58 13 -80 19 -22 5 -69 17 -105 26
-36 9 -81 20 -100 25 -19 5 -48 12 -65 16 -16 3 -68 16 -115 29 -47 13 -96 25
-110 28 -14 3 -70 17 -125 32 -55 15 -111 29 -125 32 -14 2 -34 8 -45 13 -11
5 -36 11 -55 14 -19 3 -60 13 -90 22 -30 9 -73 20 -95 24 -22 5 -65 16 -95 24
-30 9 -75 21 -100 27 -25 5 -61 14 -80 19 -19 5 -64 16 -100 25 -36 9 -81 20
-100 25 -19 5 -68 16 -108 25 -41 9 -86 21 -100 27 -15 5 -49 13 -77 18 -27 4
-58 11 -69 15 -14 6 -17 4 -14 -11z m875 -400 c-3 -3 -12 -4 -19 -1 -8 3 -5 6
6 6 11 1 17 -2 13 -5z m-32 -49 c17 -4 39 -10 50 -15 11 -5 58 -16 104 -25 47
-9 93 -21 102 -26 10 -5 32 -9 49 -9 35 0 129 -28 145 -42 14 -13 -121 9 -200
33 -72 21 -203 52 -240 56 -22 3 -44 9 -49 14 -6 5 -22 9 -37 9 -15 0 -31 5
-35 11 -7 11 46 9 111 -6z m552 -12 c-8 -7 -37 9 -31 19 3 5 12 4 20 -3 8 -6
13 -14 11 -16z m-177 -13 c60 -15 79 -34 25 -24 -22 3 -48 11 -57 15 -9 5 -30
9 -47 9 -16 0 -33 5 -37 11 -8 13 43 8 116 -11z m-1097 -27 c20 -3 37 -9 37
-14 0 -13 -14 -11 -76 7 -55 16 -77 32 -26 19 15 -3 44 -9 65 -12z m1457 7 c0
-5 -9 -10 -19 -10 -11 0 -23 5 -26 10 -4 6 5 10 19 10 14 0 26 -4 26 -10z
m-1233 -68 c-20 -2 -45 2 -56 7 -11 6 -32 11 -48 11 -18 0 -24 3 -15 8 7 5 45
1 84 -7 62 -14 67 -16 35 -19z m1147 22 c67 -11 79 -15 70 -24 -5 -5 -25 -5
-49 1 -22 6 -55 13 -72 16 -18 3 -33 10 -33 15 0 6 11 7 26 4 15 -4 40 -9 58
-12z m-978 -49 c72 -19 78 -25 26 -25 -22 0 -44 5 -47 10 -3 6 -21 10 -38 10
-18 0 -39 5 -47 10 -24 15 40 12 106 -5z m907 0 c70 -16 83 -25 37 -25 -31 0
-76 11 -125 31 -35 14 22 10 88 -6z m232 5 c8 -13 -25 -13 -45 0 -12 8 -9 10
12 10 15 0 30 -4 33 -10z m75 -20 c0 -5 -9 -10 -19 -10 -11 0 -23 5 -26 10 -4
6 5 10 19 10 14 0 26 -4 26 -10z m389 -20 c41 -11 85 -20 98 -20 12 0 23 -4
23 -10 0 -5 9 -10 19 -10 10 0 62 -11 115 -25 53 -14 109 -25 126 -25 16 0 32
-4 35 -10 3 -5 18 -10 33 -10 15 -1 38 -7 52 -15 14 -8 39 -14 57 -15 17 0 35
-4 38 -10 3 -5 15 -10 26 -10 10 0 19 -4 19 -10 0 -12 -3 -12 -32 -1 -13 5
-59 17 -103 26 -44 9 -96 21 -116 26 -20 5 -46 9 -58 9 -11 0 -21 4 -21 8 0 4
-26 13 -57 20 -32 7 -76 17 -98 22 -22 6 -60 14 -85 20 -126 26 -205 52 -193
64 4 4 17 4 28 1 11 -3 53 -15 94 -25z m-1426 -7 c15 -3 30 -10 34 -16 4 -7
-2 -8 -18 -3 -13 4 -35 9 -49 10 -40 5 -42 5 -35 17 4 6 14 7 24 4 9 -4 28 -9
44 -12z m950 -9 c20 -3 37 -10 37 -15 0 -19 -78 -7 -145 22 -21 10 36 6 108
-7z m232 6 c3 -5 18 -11 33 -11 19 -1 21 -3 7 -5 -11 -2 -42 2 -70 10 l-50 14
37 1 c20 1 40 -3 43 -9z m-332 -53 c50 -14 33 -29 -18 -16 -22 6 -55 13 -72
16 -18 3 -33 10 -33 15 0 11 60 4 123 -15z m202 13 c3 -5 -3 -10 -14 -10 -12
0 -21 5 -21 10 0 6 6 10 14 10 8 0 18 -4 21 -10z m375 -17 c30 -8 75 -18 100
-23 25 -4 69 -15 99 -25 30 -9 77 -21 105 -26 28 -6 65 -13 81 -16 17 -3 35
-9 40 -13 9 -7 65 -20 157 -37 15 -3 25 -9 22 -14 -8 -13 -42 -11 -89 5 -59
20 -131 36 -165 36 -16 0 -32 5 -35 10 -3 6 -18 10 -33 10 -15 1 -38 7 -52 15
-14 8 -37 14 -52 15 -15 0 -53 7 -85 16 -32 9 -78 20 -103 25 -24 5 -49 14
-54 19 -6 6 -22 10 -37 10 -15 0 -31 5 -35 11 -8 13 52 5 136 -18z m-270 -4
c25 -6 65 -14 90 -18 25 -5 70 -16 100 -26 30 -9 80 -20 110 -25 30 -5 73 -14
95 -20 22 -6 60 -15 85 -20 25 -5 72 -16 105 -25 33 -10 78 -21 100 -25 22 -5
58 -14 80 -20 46 -13 115 -29 130 -30 14 0 -7 -17 -31 -24 -13 -4 -28 -1 -35
7 -8 7 -39 18 -69 24 -30 7 -75 17 -100 23 -44 11 -96 23 -155 35 -16 4 -50
13 -75 20 -25 7 -72 18 -105 26 -33 7 -72 18 -87 26 -15 7 -38 13 -52 13 -24
0 -100 18 -161 38 -16 6 -47 13 -67 17 -21 3 -40 11 -44 17 -5 8 0 9 17 4 13
-4 44 -12 69 -17z m-883 -5 c-3 -3 -12 -4 -19 -1 -8 3 -5 6 6 6 11 1 17 -2 13
-5z m455 -27 c40 -14 59 -27 40 -27 -16 0 -124 29 -130 35 -10 10 54 4 90 -8z
m271 -4 c-7 -2 -19 -2 -25 0 -7 3 -2 5 12 5 14 0 19 -2 13 -5z m64 -19 c-3 -3
-12 -4 -19 -1 -8 3 -5 6 6 6 11 1 17 -2 13 -5z m170 -25 c27 -6 56 -15 65 -20
10 -5 27 -9 39 -9 23 0 142 -28 174 -41 11 -4 38 -10 60 -12 22 -2 67 -12 100
-22 33 -10 78 -21 100 -26 124 -25 175 -42 175 -59 0 -16 -56 -12 -70 5 -7 8
-21 15 -31 15 -25 0 -110 20 -131 31 -10 5 -28 9 -40 9 -13 0 -57 10 -98 21
-41 12 -95 25 -120 29 -25 5 -83 18 -130 30 -47 12 -103 27 -125 32 -22 6 -49
14 -60 18 -32 13 35 12 92 -1z m946 -35 c11 -11 -3 -24 -18 -18 -8 4 -12 10
-9 15 6 11 18 12 27 3z m292 -9 c22 -8 49 -15 61 -15 26 0 34 -8 27 -26 -3 -8
-10 -10 -21 -5 -21 11 -77 27 -119 36 -18 4 -33 11 -33 16 0 13 39 10 85 -6z
m-1270 -25 c8 -13 -35 -13 -55 0 -11 7 -7 10 17 10 17 0 35 -4 38 -10z m148
-26 c47 -12 65 -20 58 -27 -7 -7 -26 -7 -58 2 -27 7 -63 15 -81 18 -18 3 -35
9 -38 14 -8 14 44 11 119 -7z m796 5 c20 -7 45 -15 56 -19 19 -8 19 -8 1 -16
-11 -4 -32 -2 -50 6 -17 7 -43 15 -59 17 -15 3 -30 9 -33 14 -7 13 43 11 85
-2z m221 1 c0 -5 -4 -10 -10 -10 -5 0 -10 5 -10 10 0 6 5 10 10 10 6 0 10 -4
10 -10z m294 1 c3 -4 24 -11 46 -15 35 -5 41 -10 38 -28 -3 -23 -52 -58 -64
-46 -4 4 -7 18 -8 30 -1 22 -36 40 -36 19 0 -6 -9 -11 -20 -11 -23 0 -23 0
-10 34 9 25 43 36 54 17z m-115 -37 c9 -8 -19 -54 -42 -69 -22 -14 -27 -14
-68 5 -24 11 -54 20 -66 20 -13 0 -23 5 -23 10 0 6 -4 10 -10 10 -5 0 -10 -7
-10 -15 0 -8 -4 -15 -9 -15 -23 0 -41 14 -41 31 0 14 7 19 29 19 17 0 32 -4
35 -9 3 -4 25 -11 48 -15 24 -3 58 -9 76 -12 26 -5 32 -3 32 11 0 10 -8 24
-17 31 -16 11 -13 12 22 7 22 -3 42 -7 44 -9z m-1014 -13 c25 -10 105 -31 165
-42 25 -5 65 -14 90 -20 25 -6 65 -13 90 -16 25 -3 49 -9 54 -14 6 -5 18 -9
29 -9 14 0 17 5 12 20 -6 17 -2 20 29 20 34 0 47 -12 26 -25 -5 -3 -7 -12 -4
-19 6 -16 -40 -48 -52 -36 -5 5 -38 16 -74 25 -36 9 -74 20 -85 25 -11 5 -36
11 -55 13 -54 8 -124 27 -134 38 -6 5 -29 9 -53 9 -23 0 -52 4 -65 9 -13 5
-35 12 -50 15 -16 4 -28 10 -28 14 0 9 77 4 105 -7z m-230 -21 c4 -6 -5 -10
-19 -10 -14 0 -26 5 -26 10 0 6 9 10 19 10 11 0 23 -4 26 -10z m-1510 -51 c7
-7 -5 -9 -34 -7 -27 2 -46 9 -49 17 -4 11 3 12 34 7 22 -4 44 -12 49 -17z
m1685 1 c0 -13 -11 -13 -30 0 -12 8 -11 10 8 10 12 0 22 -4 22 -10z m958 -8
c44 -4 50 -10 30 -30 -20 -20 -45 -14 -80 19 -22 21 -26 29 -13 24 11 -5 39
-10 63 -13z m-2510 -14 c18 -18 15 -26 -10 -22 -79 11 -98 16 -93 25 9 13 89
11 103 -3z m1781 -24 c2 -2 -10 -4 -27 -4 -17 0 -34 4 -37 10 -5 9 53 3 64 -6z
m184 -30 c26 -3 47 -8 47 -11 0 -3 -10 -15 -22 -27 -13 -12 -34 -35 -46 -50
l-24 -28 -14 21 c-9 12 -24 21 -35 21 -32 0 -21 19 14 22 42 4 42 30 0 43 -48
16 -53 28 -8 21 22 -4 61 -10 88 -12z m-73 -133 c0 -10 -58 -36 -66 -29 -2 3
-2 13 2 22 6 17 64 24 64 7z m-110 -51 c0 -5 -5 -10 -11 -10 -7 0 -9 -9 -5
-23 3 -14 -1 -33 -10 -45 -16 -23 -44 -30 -44 -11 0 6 -6 9 -13 6 -20 -8 -41
9 -34 27 4 9 18 16 32 16 14 0 25 5 25 11 0 14 30 38 48 39 6 0 12 -4 12 -10z
m-62 -132 c25 -13 28 -25 8 -47 -7 -9 -26 -40 -42 -69 -27 -49 -28 -54 -11
-63 9 -6 14 -15 11 -21 -10 -16 -25 -78 -30 -128 -3 -25 -14 -65 -25 -89 -13
-29 -16 -48 -9 -55 10 -13 -12 -102 -30 -120 -12 -12 -13 -123 -1 -130 8 -5
26 -109 35 -205 6 -59 -4 -81 -35 -81 -16 0 -19 -8 -19 -48 0 -35 -5 -54 -19
-66 -17 -16 -19 -15 -25 15 -10 54 -7 80 14 103 17 17 22 38 25 110 3 49 1 94
-4 100 -20 26 -31 79 -19 93 8 10 8 20 -2 38 -11 20 -11 33 -1 67 34 116 34
117 23 131 -13 15 -6 45 28 122 29 65 63 245 49 261 -7 9 -3 19 13 34 l23 22
-22 15 c-13 9 -23 20 -23 25 0 11 54 2 88 -14z m2007 -48 c37 -8 61 -13 123
-26 12 -2 22 -8 22 -12 0 -10 -93 -2 -104 9 -6 5 -29 9 -51 9 -30 0 -47 6 -61
22 -19 21 -19 21 6 14 14 -4 43 -12 65 -16z m70 -200 c3 -5 17 -10 29 -10 13
0 29 -7 36 -15 11 -13 7 -15 -27 -15 -33 0 -42 4 -51 25 -11 24 0 36 13 15z
m-2640 -290 c3 -6 -1 -7 -9 -4 -18 7 -21 14 -7 14 6 0 13 -4 16 -10z m2705
-106 c0 -8 -4 -12 -10 -9 -5 3 -10 10 -10 16 0 5 5 9 10 9 6 0 10 -7 10 -16z
m-23 -271 c-15 -16 -17 -16 -17 -1 0 9 6 18 13 21 20 7 22 -2 4 -20z m-2601
-360 c-10 -10 -19 5 -10 18 6 11 8 11 12 0 2 -7 1 -15 -2 -18z m-50 -150 c-10
-26 -18 -8 -9 23 5 21 8 24 11 11 2 -10 1 -25 -2 -34z m-25 -76 c-13 -13 -15
1 -4 30 7 17 8 17 11 -1 2 -10 -1 -23 -7 -29z"/>
<path d="M195 2980 c3 -5 13 -10 21 -10 8 0 12 5 9 10 -3 6 -13 10 -21 10 -8
0 -12 -4 -9 -10z"/>
<path d="M300 2953 c14 -2 39 -11 57 -19 17 -8 45 -14 62 -14 17 0 31 -4 31
-10 0 -5 14 -10 31 -10 17 0 39 -5 50 -10 11 -6 35 -13 55 -16 19 -2 44 -9 54
-14 10 -6 32 -10 49 -10 17 0 31 -4 31 -10 0 -5 18 -10 39 -10 22 0 42 -4 45
-9 3 -5 26 -12 51 -15 24 -4 47 -11 50 -17 7 -11 85 -12 85 -1 0 4 -37 16 -82
26 -46 11 -87 23 -93 27 -5 3 -26 9 -45 12 -80 13 -205 44 -232 58 -10 5 -31
9 -48 9 -17 0 -38 4 -48 9 -27 14 -109 31 -140 30 -26 -2 -26 -2 -2 -6z"/>
<path d="M1035 2770 c-4 -6 6 -10 22 -10 22 0 25 2 13 10 -19 12 -27 12 -35 0z"/>
<path d="M1123 2743 c9 -2 23 -2 30 0 6 3 -1 5 -18 5 -16 0 -22 -2 -12 -5z"/>
<path d="M1225 2720 c3 -5 13 -10 21 -10 8 0 12 5 9 10 -3 6 -13 10 -21 10 -8
0 -12 -4 -9 -10z"/>
<path d="M1295 2700 c-4 -6 9 -10 32 -9 30 0 34 2 18 9 -27 12 -43 12 -50 0z"/>
<path d="M1395 2670 c28 -12 67 -12 60 0 -3 6 -23 10 -43 9 -30 0 -33 -2 -17
-9z"/>
<path d="M1475 2650 c3 -5 20 -10 36 -10 18 0 28 4 24 10 -3 6 -20 10 -36 10
-18 0 -28 -4 -24 -10z"/>
<path d="M1570 2630 c0 -5 17 -10 38 -9 33 1 34 2 12 9 -36 11 -50 11 -50 0z"/>
<path d="M1650 2611 c0 -11 25 -21 51 -21 26 0 24 16 -3 24 -32 8 -48 7 -48
-3z"/>
<path d="M1755 2580 c3 -5 23 -10 43 -10 28 0 33 3 22 10 -20 13 -73 13 -65 0z"/>
<path d="M1855 2559 c-15 -6 -11 -8 18 -8 20 -1 37 1 37 3 0 9 -37 12 -55 5z"/>
<path d="M1930 2530 c0 -5 18 -10 39 -10 22 0 43 -4 46 -10 3 -5 25 -10 48 -9
45 0 40 5 -34 28 -44 14 -99 14 -99 1z"/>
<path d="M2121 2486 c11 -9 69 -14 69 -6 0 6 -16 10 -37 10 -20 0 -34 -2 -32
-4z"/>
<path d="M2215 2460 c3 -5 17 -10 31 -10 13 0 24 5 24 10 0 6 -14 10 -31 10
-17 0 -28 -4 -24 -10z"/>
<path d="M2305 2440 c-4 -6 7 -10 27 -10 25 0 29 3 18 10 -19 13 -37 13 -45 0z"/>
<path d="M2413 2413 c9 -2 23 -2 30 0 6 3 -1 5 -18 5 -16 0 -22 -2 -12 -5z"/>
<path d="M2595 2370 c-4 -6 3 -10 14 -10 25 0 27 6 6 13 -8 4 -17 2 -20 -3z"/>
<path d="M2708 2343 c7 -3 16 -2 19 1 4 3 -2 6 -13 5 -11 0 -14 -3 -6 -6z"/>
<path d="M2790 2320 c0 -5 5 -10 11 -10 5 0 7 5 4 10 -3 6 -8 10 -11 10 -2 0
-4 -4 -4 -10z"/>
<path d="M2883 2293 c9 -2 23 -2 30 0 6 3 -1 5 -18 5 -16 0 -22 -2 -12 -5z"/>
<path d="M4478 2293 c7 -3 16 -2 19 1 4 3 -2 6 -13 5 -11 0 -14 -3 -6 -6z"/>
<path d="M2973 2273 c9 -2 23 -2 30 0 6 3 -1 5 -18 5 -16 0 -22 -2 -12 -5z"/>
<path d="M3060 2250 c0 -5 12 -10 26 -10 14 0 23 4 19 10 -3 6 -15 10 -26 10
-10 0 -19 -4 -19 -10z"/>
<path d="M3158 2223 c12 -2 30 -2 40 0 9 3 -1 5 -23 4 -22 0 -30 -2 -17 -4z"/>
<path d="M3245 2200 c3 -5 13 -10 21 -10 8 0 14 5 14 10 0 6 -9 10 -21 10 -11
0 -17 -4 -14 -10z"/>
<path d="M3370 2180 c0 -5 5 -10 11 -10 5 0 7 5 4 10 -3 6 -8 10 -11 10 -2 0
-4 -4 -4 -10z"/>
<path d="M3605 2180 c-3 -5 1 -10 9 -10 8 0 18 5 21 10 3 6 -1 10 -9 10 -8 0
-18 -4 -21 -10z"/>
<path d="M3515 2139 c-24 -25 -27 -32 -15 -39 21 -14 22 -13 52 24 23 28 25
35 12 40 -20 8 -14 10 -49 -25z"/>
<path d="M3433 2153 c9 -2 25 -2 35 0 9 3 1 5 -18 5 -19 0 -27 -2 -17 -5z"/>
<path d="M0 1540 l0 -612 22 6 c13 4 36 9 51 13 27 6 29 8 23 48 -4 24 -2 54
5 71 7 16 11 35 10 43 -5 27 9 60 29 66 26 8 53 61 46 90 -4 15 4 34 24 61 16
21 30 48 30 60 0 11 10 30 23 42 12 12 39 38 59 58 l38 38 -7 160 c-6 153 -8
163 -35 209 -16 27 -35 63 -42 82 -8 18 -36 56 -63 84 -39 40 -56 51 -81 51
-17 0 -33 4 -36 9 -3 4 -18 11 -33 14 -16 3 -36 9 -45 12 -17 7 -18 -26 -18
-605z"/>
<path d="M3560 2065 c0 -11 12 -15 50 -15 56 0 67 14 19 24 -50 10 -69 7 -69
-9z"/>
<path d="M3762 2019 c4 -13 22 -19 113 -39 65 -14 134 -35 141 -43 4 -4 21 -7
37 -7 17 0 44 -4 61 -9 85 -26 218 -60 344 -89 36 -8 42 -7 42 7 0 17 -55 37
-133 48 -20 3 -40 9 -43 14 -3 5 -20 9 -39 9 -19 0 -36 4 -39 9 -3 4 -25 11
-48 14 -24 4 -68 14 -98 23 -30 9 -73 20 -95 24 -22 4 -65 15 -95 24 -82 25
-154 32 -148 15z"/>
<path d="M4365 1920 c-4 -6 3 -10 14 -10 25 0 27 6 6 13 -8 4 -17 2 -20 -3z"/>
<path d="M4448 1893 c7 -3 16 -2 19 1 4 3 -2 6 -13 5 -11 0 -14 -3 -6 -6z"/>
<path d="M4030 1830 c-12 -7 -8 -11 18 -16 18 -4 35 -11 38 -15 3 -5 22 -9 43
-9 21 0 41 -3 45 -7 8 -9 102 -32 161 -40 22 -3 44 -9 50 -14 5 -5 24 -9 41
-9 18 0 36 -4 39 -10 10 -17 35 -11 35 8 0 19 -44 35 -128 49 -18 3 -35 9 -38
14 -3 5 -19 9 -35 9 -31 0 -120 24 -151 41 -23 12 -99 11 -118 -1z"/>
<path d="M4460 1220 c0 -13 7 -20 20 -20 24 0 27 25 4 34 -23 9 -24 8 -24 -14z"/>
<path d="M0 861 c0 -24 3 -28 20 -24 30 8 36 24 15 40 -28 19 -35 16 -35 -16z"/>
<path d="M0 669 c1 -50 2 -52 15 -35 19 25 19 60 0 76 -13 11 -15 5 -15 -41z"/>
<path d="M0 260 c0 -226 1 -240 19 -250 11 -5 84 -10 165 -10 139 0 146 1 146
20 0 19 -32 60 -48 60 -4 0 -21 -4 -39 -9 -55 -16 -77 22 -75 129 1 30 -3 70
-8 89 -8 29 -6 41 10 69 11 18 18 38 15 43 -4 5 -32 9 -64 9 -61 0 -81 11 -81
45 0 21 -17 45 -32 45 -4 0 -8 -108 -8 -240z"/>
</g>
</svg>
