<svg version="1" xmlns="http://www.w3.org/2000/svg" width="600" height="600" viewBox="0 0 450.000000 450.000000"><path d="M0 94.9c0 5.8.1 6.1 1.9 4.9 1.5-.9 2.5-.9 4.6 0 3.3 1.5 7.8 1.7 5.5.2-.8-.5-2.3-1-3.4-1C6.2 99 2 94.5 2 92c0-1-.4-2.2-1-2.5-.6-.4-1 1.7-1 5.4zM17.3 102.7c.9.2 2.3.2 3 0 .6-.3-.1-.5-1.8-.5-1.6 0-2.2.2-1.2.5zM23 104.4c0 .2 1.1.6 2.5.8 1.4.3 2.5.1 2.5-.3 0-.5-1.1-.9-2.5-.9s-2.5.2-2.5.4zM42.8 109.7c.7.3 1.6.2 1.9-.1.4-.3-.2-.6-1.3-.5-1.1 0-1.4.3-.6.6zM0 121.6c0 9.9.1 10.5 2.3 11.3 4.1 1.7 13.2 4.1 18.2 5 7.4 1.3 23.1 5 30.5 7.2 12 3.6 18 3.4 18-.7 0-2.7 1.5-3.2 2.8-.8.5.8 2 2.1 3.3 2.8 1.4.7 2.3 1.9 2.1 2.9-.3 1.8 1.1 2.5 8.3 4.7 5 1.4 10.1 1 9.7-.8-.1-.8.4-1.2 1.5-1 1.1.2 1.7 1.2 1.6 2.5-.2 1.7.4 2.2 3.5 2.5 2 .3 4.5.8 5.5 1.2 1.3.6 1.6.5 1.1-.8-.4-1-.1-1.6.9-1.6 1.6 0 4.7 2.6 4.7 3.9 0 1.6 27.5 8.4 34 8.3 1.3 0 2.9.6 3.5 1.3 1.1 1.5 7.7 3.5 11.2 3.5 1.7 0 2.1-.4 1.6-1.6-.5-1.3-.3-1.4 1.3-.6 1 .6 2.7 2 3.7 3.2 1.5 1.8 2.5 2 5.8 1.5 2.9-.5 3.9-.3 3.9.7 0 1.8 8.8 4.8 14.3 4.8 4.7 0 7.1-1.7 6.1-4.3-.4-1.2.3-1.7 2.9-2.2 6.4-1.2 7.2-.6 7 5.1-.2 5-.2 5.2 3.5 6.7 2 .9 6 1.9 8.7 2.2 2.8.3 7.3 1.2 10 2.1 12.5 3.7 15.4 4.4 20.7 4.9 3.1.4 6.2 1.3 6.9 2.1.6.8 2.4 1.4 3.9 1.4s5.3 1.1 8.4 2.5c3.1 1.4 6.7 2.5 8 2.5 1.3 0 5.2.8 8.7 1.8 3.5 1.1 11.8 3.3 18.4 5.1 6.6 1.8 13.4 3.6 15 4.1 1.7.5 6.2 1.5 10.2 2.2 3.9.6 7 1.5 6.7 1.9-.2.5 1.2 1.1 3.3 1.4 2.1.3 5.5 1.1 7.5 1.7 2 .6 4.3.8 5.1.5.8-.3 2.3 0 3.3.7 1.1.7 5.4 2.1 9.7 3 4.2 1 8 2.2 8.3 2.7.3.5 2.5.9 5 .9 2.4 0 4.4.4 4.4 1 0 .5 1.6 1 3.6 1 2.7 0 3.7-.5 4.1-2 .6-2.4 1.6-2.5 4.8-.4 2.9 1.9 2.4 3.4-1.1 3.4s-2.1 1.7 1.8 2.3c4.2.7 11.2 2.3 16.3 3.6 2.2.5 4.9.8 6.1.5 1.2-.3 2.6.1 3.3 1 .8.9 2.4 1.6 3.7 1.6 1.4 0 3.2.4 4.2.9 2.8 1.4 8.4 3.2 12.3 4 1.9.4 4.1 1.1 4.7 1.5.9.5 1.2-1.4 1.2-7.1v-7.8l-8.2-2.2c-4.6-1.2-11-2.8-14.3-3.6-5.5-1.4-20.8-5.4-42.5-11.2-10.2-2.8-16.9-5.1-18.7-6.6-.7-.6-1.3-3.1-1.3-5.5 0-3.3.4-4.4 1.9-4.9 1.4-.4 1.7-1.2 1.3-3.3-.2-1.5-.9-3.3-1.5-4-1.6-2-7.5-4.8-13.7-6.6-3-.8-9.5-2.7-14.5-4.1-17.2-4.9-36-9.5-41.2-10.1-4.3-.6-5.8-.3-8.8 1.6-2.7 1.7-3.4 2.7-2.9 3.9.4.9.9 3.7 1.2 6.2.5 5.9-.6 6.4-9.6 4.3-3.7-.8-8.6-1.9-11-2.4-2.4-.5-4.8-1.2-5.3-1.6-.6-.3-4.3-1.4-8.2-2.4-7.3-1.9-10.5-2.8-25.7-7.3-4.7-1.3-10.3-2.8-12.5-3.1-4.2-.8-9.7-2.3-13-3.7-4.4-1.9-15.4-5.1-24-6.9-4.9-1-10.6-2.5-12.5-3.3-1.9-.8-6-1.8-9-2.2-3-.4-6.1-1.1-7-1.5-2.3-1.2-29.7-9-31.6-9-.9 0-3.7-.6-6.3-1.4-18.2-5.7-37-10.6-40.2-10.6-.8 0-3.2-.9-5.4-2-2.1-1.1-5.5-2.3-7.4-2.6-4.9-.9-13-3-16.3-4.2-1.4-.6-6.4-2-11-3.1-9.1-2.3-15-4-24.5-7L0 111.2v10.4zm99.6 27.2c-.9.9-3.7-.8-3.1-1.8.5-.8 1.1-.7 2.1.1.8.6 1.2 1.4 1 1.7zm68.1 15.8c-.3.3-1.2.4-1.9.1-.8-.3-.5-.6.6-.6 1.1-.1 1.7.2 1.3.5zm93.4 25.5c-.2.8-.4 1.9-.4 2.6 0 .6-.6.9-1.4.7-4.6-1.4-4.4-1.2-2.6-3.3 2-2.2 5-2.2 4.4 0zM92.8 123.7c.6.2 1.8.2 2.5 0 .6-.3.1-.5-1.3-.5-1.4 0-1.9.2-1.2.5zM0 147c0 .5 1.2 1 2.8 1 2.1 0 2.4-.2 1.2-1-2-1.3-4-1.3-4 0zM.2 152.6c.3 1.8 4 3.3 13.3 5.5 5.5 1.3 9.3 2.3 21 5.4 5.5 1.5 11.8 3 14 3.5 2.2.4 6.7 1.5 10 2.5 3.3.9 7.8 2.1 10 2.6s6.5 1.6 9.5 2.5c3 .9 7.5 2 10 2.4 2.5.5 6.3 1.4 8.5 2 2.2.6 6 1.5 8.5 2s7 1.7 10 2.6c3 .9 7.1 1.8 9 2.1 1.9.2 4.4.8 5.5 1.3 2.2.9 9 2.7 15 4 2.2.4 8.5 2 14 3.5 10.3 2.8 13.8 3.7 21.5 5.5 8.2 1.9 13.9 3.6 14.6 4.3.4.4 2.2.7 4 .7 1.8 0 4.3.4 5.6.9 4.9 1.8 10.5 3.5 14.3 4.2 2.2.4 5.8 1.2 8 1.8 2.2.5 6.7 1.7 10 2.5s7.8 2 10 2.6c2.2.6 5.8 1.5 8 1.9 2.2.5 6.7 1.6 10 2.6 3.3.9 7.8 2.1 10 2.5 2.2.4 6.7 1.6 10 2.5 3.3 1 7.6 2.1 9.5 2.5 1.9.4 5.5 1.3 8 2.1 4.3 1.3 4.4 1.3 1.5 1.7-2.7.3-5.1-.2-14.1-2.9-3.3-1-11.2-2.7-15.9-3.5-1.6-.3-3.9-.9-5-1.4-1.1-.5-3.1-1.1-4.5-1.3-1.4-.3-5.2-1.2-8.5-2.2-3.3-.9-8-2.1-10.5-2.5-5.6-1-11.5-2.5-12.7-3.3-.6-.4-3.4-1.1-6.4-1.6-3-.5-7.2-1.5-9.4-2.1-2.2-.6-6-1.6-8.5-2.1s-7.4-1.8-11-2.8c-7.9-2.3-21.8-5.9-28-7.1-2.5-.6-6.3-1.4-8.5-1.9-2.2-.6-6.7-1.6-10-2.4-3.3-.7-8.5-2.1-11.5-3-6.6-1.9-20.9-5.6-26.5-6.7-2.2-.5-5.8-1.4-8-2-4.6-1.3-14.8-3.9-18.5-4.6-1.4-.3-3.4-.9-4.5-1.4-1.1-.5-4.5-1.4-7.5-2-3-.5-7.7-1.7-10.5-2.4-7.3-2-22.4-5.7-27-6.6-5.3-1.1-28.2-6.8-32.1-8-4.3-1.4-4.6-1.3-4.2 1.2.2 1.7 1.1 2.4 3.3 2.6 1.7.2 3.4.8 4 1.3.5.5 2.1.9 3.6.9s3 .4 3.3.9c.3.5 2.3 1.2 4.3 1.5 6.3 1.1 13.7 2.8 15.8 3.7 1.1.4 3.7 1.3 5.8 1.9 2 .6 3.7 1.3 3.7 1.5 0 .6-8.5-.6-10.5-1.5-1.1-.5-3.6-1.1-5.5-1.4-1.9-.2-6.2-1.2-9.5-2.1-3.3-.8-8-1.9-10.5-2.4s-5.3-1.2-6.2-1.6c-1.4-.6-1.8-.2-1.8 1.8 0 1.9.6 2.6 2.8 3 1.5.3 7.2 1.7 12.7 3.2 5.5 1.4 11.8 3 14 3.5 2.2.5 8.3 2.1 13.5 3.6 5.2 1.4 10.7 2.9 12.3 3.1 1.5.3 3 .9 3.3 1.4.9 1.5-3.2 1-10.9-1.2-3.9-1.2-9.2-2.5-11.7-2.9-2.5-.5-6.3-1.3-8.5-1.9-2.2-.5-6-1.4-8.5-2-5.9-1.3-15-3.7-17.2-4.6-1.4-.6-1.8-.2-1.8 1.7 0 2.5 2.3 3.7 10 5.2 1.4.3 5.2 1.2 8.5 2.1 6.4 1.7 12.5 3.1 19 4.5 2.2.4 6.7 1.6 10 2.5 3.3 1 7.8 2.1 10 2.6 7.6 1.5 11.7 2.7 12.9 3.9.8.9-.2 1-4.4.5-3-.4-6.3-1.1-7.2-1.6-.9-.5-3-.9-4.7-.9-1.6 0-3.3-.5-3.6-1-.3-.6-1.9-1-3.4-1s-4.1-.4-5.7-.9c-5.5-1.8-13.9-3.9-19.9-5.2-3.3-.6-8-1.8-10.5-2.5s-6-1.5-7.8-1.8c-3-.5-3.3-.4-3 1.6.2 1.4 1.3 2.5 2.8 2.9 6.1 1.7 20.9 5.3 25 6 2.5.5 6.3 1.3 8.5 1.9 2.2.5 7.2 1.6 11 2.5 3.9.9 8.6 2 10.5 2.5 1.9.5 5.3 1.3 7.5 1.8 9.3 2.2 14.1 3.4 16 4.2 1.1.5 3.6 1.1 5.5 1.3 1.9.3 6.2 1.2 9.5 2.2 3.3.9 8 2 10.5 2.5 2.5.4 6.3 1.1 8.5 1.5 2.2.4 4.5 1.1 5 1.5.6.4 4.6 1.5 9 2.5 4.4.9 8.9 2.1 10 2.6 3.2 1.4-7 .4-14.5-1.5-7.1-1.8-14.7-3.4-19.8-4.3-1.8-.3-3.5-.9-3.8-1.4-.3-.5-1.5-.9-2.7-.9-1.2 0-5.8-1-10.2-2.1-4.4-1.1-10.3-2.4-13-2.9-2.8-.4-7.9-1.5-11.5-2.5-3.6-1-8.3-2.1-10.5-2.5-2.2-.5-5.6-1.3-7.5-1.9-5.2-1.4-6.7-1.8-15.5-3.6-4.4-.9-8.9-2.1-10-2.5-1.1-.5-3.6-1.1-5.5-1.4-1.9-.3-6.1-1.2-9.2-1.9L0 187.3v2.3c0 1.8.7 2.5 2.8 2.9 1.5.4 3.6.9 4.7 1.1 4.6 1.2 15.2 3.6 18.3 4.1 1.8.3 3.5.9 3.8 1.4.3.5 2.1.9 4 .9s6.7.9 10.7 2.1c3.9 1.1 9.5 2.4 12.2 2.9 2.8.4 7.5 1.5 10.5 2.5 3 .9 7.8 2 10.5 2.5 2.8.5 6.6 1.4 8.5 1.9 1.9.6 5.8 1.5 8.5 2.1 2.8.7 6.8 1.6 9 2.2 5.4 1.3 9.7 2.4 18.3 4.4 3.9 1 6.9 2.1 6.5 2.5-.5.5-2.6.4-4.8-.2-8.9-2.1-13.2-3.1-17.5-3.8-2.5-.5-7.9-1.8-12-3-4.1-1.1-8.7-2.1-10.2-2.1s-3.7-.4-5-.9c-1.3-.5-5-1.5-8.3-2.1-3.3-.7-10.5-2.3-16-3.7-5.5-1.3-12-2.8-14.5-3.3-2.5-.6-6.7-1.7-9.5-2.4-2.7-.8-7.7-2-11-2.7-3.3-.6-8.5-1.8-11.5-2.5-3-.8-6-1.4-6.7-1.4-1 0-1.3 3.7-1.3 16.5V228l2.8.6c6.6 1.4 12.1 3.7 17 7 2.8 2 5.2 4 5.2 4.5s1.6 2.7 3.6 4.9c2 2.1 3.3 4.4 2.9 5-.3.6.7 2.3 2.2 3.9 2.1 2.1 4.3 3.1 8.1 3.6 7.6 1 7.8 2.8.3 1.9-3.6-.4-6.1-.3-6.1.3 0 .5.8 2.7 1.8 4.9 1 2.1 2.6 9.1 3.6 15.4.9 6.3 2.2 14.4 2.8 18 .6 3.6 1.1 12.6 1.1 20 0 12.7-.2 14.1-3.6 24-4.3 12.9-5.5 24.9-3.2 30.7 1.2 2.9 1.3 5.3.7 9.8-.8 6.4-.5 8.7 2.8 17.9 3.5 9.7 4.4 20.7 2.6 33.2-.8 6-1.8 12.1-2.2 13.6l-.6 2.8h21.6c13 0 21.6-.4 21.6-1 0-.5 2-3.7 4.4-7.2 4.8-6.8 8.5-14.4 11.1-22.3.9-2.8 2.9-6.7 4.6-8.7 2-2.6 2.9-4.8 2.9-7.4 0-3.1.7-4.3 4.6-7.8 2.6-2.2 6.1-5 7.9-6.1 6.3-3.9 6.5-4.3 5-7.8-1.6-4-.9-9 1.6-11.3 2.2-1.9 2.5-4.4.7-6.2-.7-.7-1.1-5.8-1-15.2.1-14.1.1-14.1 3.2-19 4.4-6.9 9.4-11.5 15.9-14.7 4.7-2.3 6.9-2.7 14.1-2.7 7.6-.1 9.1.3 13.8 2.9 9.3 5.1 18.1 18.6 19.7 30.5.5 3 .8 14.5.7 25.5-.1 20.4-1.2 28.8-5 37.7-1.6 3.8-3.8 5.4-2.8 2 .3-.9 1-3.7 1.6-6.2.7-2.5 1.6-5 2-5.5.5-.6.8-11.6.6-24.5-.2-20.7-.4-24-2.1-27.2-1-2.1-2.2-3.8-2.7-3.8-.4 0-.8-1.3-.8-2.8 0-2.9-2-5.4-5.2-6.5-1.2-.4-1.8-.1-1.8.8 0 .8-1.1 1.7-2.4 2.1-1.8.4-2.8 1.7-3.8 4.7-1 3.2-2.2 4.5-5.7 6.4-9.4 4.9-10.4 8.3-3.3 11.8 6.6 3.3 6.8 3.9 2.9 6.9-4 3.1-6.5 11.3-4.8 15.9 2 5.2-1.3 7.9-7.8 6.7-4.5-.8-6.1-.3-6.1 1.9 0 .9-.9 3.4-1.9 5.4l-1.9 3.8 2.5 4.9c3.5 6.7 2.8 8-3.9 7.3-12.9-1.2-22.4 4.7-24.9 15.4-1.4 5.9-3.4 6.8-7 3.2-2.9-2.9-4.5-1.8-6.3 4.5-.9 3.1-2.1 5.6-2.7 5.6-1.4 0-5.9 5-5.9 6.6 0 2 116.6 2.1 117.3.1.4-1 .6-1 .6 0 .1.8 1.7 1.3 4.5 1.3h4.3l.5-8.3c.2-4.5.8-8.9 1.3-9.7.4-.7.8-3 .8-4.9 0-2 .4-4.4.9-5.5.7-1.3.6-2.6-.3-4.2-1-2-1-2.7.3-4.1.9-1 2.9-4.5 4.5-7.8s4.1-7.7 5.6-9.8c1.4-2.1 2.9-5.9 3.3-8.4.5-3.4 1.6-5.6 4.6-8.6 2.2-2.2 4.2-5.3 4.5-6.9.5-2.7 3.2-5.9 3.4-4.2.1.5.3 3.6.4 6.9.1 3.3.7 7.9 1.4 10.3 1 3.7.9 4.7-1 8.5-1.2 2.3-3.5 5.7-5 7.5-1.6 1.8-2.9 4-2.9 4.8 0 .8-.4 1.3-.9.9-2.1-1.3-2.2 1.9-.1 3.5l2.2 1.7-2.4 2.4c-4.8 4.7-6.1 15.7-2.3 18.9.8.7 1.5 2.8 1.5 4.7 0 1.9.4 4.2 1 5.2.6 1.3.5 2.4-.5 3.7-.8 1.1-1.5 2.2-1.5 2.6 0 .5 45.9.8 102 .8h102.1l2.4-2.5 2.5-2.4v-33.6c0-25.4-.3-33.5-1.2-33.5-.9 0-.9-.3 0-1.2 1.5-1.5 1.6-4.8.2-4.8-.6 0-1-3-1-7s.4-7 1-7 1-2.7 1-6.1c0-5.6-.2-6-2-5.4-1.6.5-2 .2-2-1.5s.4-2 2-1.5 2 .2 2-1.8c0-1.8-.5-2.3-2.2-2.3-1.4.1-2.4-.6-2.6-1.7-.3-1.5.1-1.7 2.2-1.1 2.2.5 2.6.3 2.6-1.5 0-1.5-.9-2.3-3.2-2.9-3.1-.8-3.3-1.1-3.3-5.3 0-4.4 0-4.4 3.3-4.1l3.2.4v-5.1c0-4.4-.3-5.1-1.9-5.1-1.1 0-2.3-.5-2.7-1.1-.3-.6-1.8-.9-3.2-.6-3.1.6-5.2-.1-5.2-1.7 0-1.4 6.7-.9 7.6.5.3.5 1.6.9 3 .9 1.9 0 2.4-.5 2.4-2.5 0-2.2-.4-2.5-3.4-2.5-1.9 0-3.8-.5-4.1-1-.3-.6-2.8-1-5.6-1-4.1 0-4.9-.3-4.9-1.9 0-1.7.3-1.7 5.3-.3 2.8.8 6.9 1.7 9 1.9l3.7.5v-5c0-4.6-.2-5-2.7-5.5-1.6-.3-4.8-1.1-7.3-1.7-10.3-2.5-15.3-3.1-16.1-1.8-.5.9-1.3.5-2.8-1.3-3-3.7-1.1-4.5 6.1-2.5 3.5 1 7.2 2.2 8.3 2.6 1.1.5 3.6 1.1 5.5 1.4 1.9.2 4.7.8 6.2 1.1 2.4.6 2.8.4 2.8-1.3 0-2.1-1.7-2.7-13.5-5.2-5.1-1-15.5-3.9-16.5-4.5-.5-.3-1.5.1-2.3.9-1.3 1.3-1.6 1.3-2.9-.2-4.1-5-4.1-5 .4-3.9 2.4.5 5.2 1.3 6.3 1.8 1.1.4 4.3 1.3 7 1.9 2.8.6 6.8 1.6 9 2.1 7.7 2 12.5 2.2 12.5.6 0-1.4-1.1-1.8-9.5-3.7-2.2-.5-5.6-1.3-7.5-1.9-13.7-3.9-27-6.8-29.3-6.4-1.5.3-2.7.1-2.7-.5s-2.1-3.1-4.6-5.7c-2.6-2.5-4.4-4.8-4.2-5.1.3-.2 3.6.3 7.4 1.1 3.8.9 8 1.9 9.4 2.1 1.4.3 3.4.9 4.5 1.4 1.1.5 3.6 1.1 5.5 1.4 1.9.2 6.2 1.2 9.5 2.1 6.3 1.8 12.8 3.2 18.3 4.2 4.9.8 3.9-1.3-1.5-3.2-2.7-1-5.7-2.1-6.8-2.5-1.1-.5-3.6-1.1-5.5-1.4-4.9-.7-8.7-1.5-14.5-3.1-2.7-.8-7-1.9-9.5-2.5-2.5-.6-6-1.6-7.8-2.2-1.8-.5-5.7-.8-8.5-.6-3.3.2-7.6-.4-11.6-1.7-5.3-1.7-6.8-2.6-8.8-5.8-2-3.1-2.8-3.7-4.6-3.1-2.6.9-13.7 1.3-15.5.6-.7-.2-1-1.2-.7-2.3.4-1.2-.1-2.2-1.7-3-1.3-.6-2.7-1.8-3.1-2.5-.4-.8-1.9-1.4-3.2-1.4-1.3 0-2.6-.4-2.9-.9-.3-.4-2-1.1-3.7-1.5-2.5-.5-3-1-2.4-2.3 1.1-3 1.1-3.7-.5-4-.9-.2-2.7.7-4 1.9-2.4 2.3-4.6 2.5-8.5.9-3.3-1.4-10.8-3.3-15-3.8-2.2-.3-4.4-.9-4.9-1.4-.6-.5-2.5-.9-4.2-.9-1.8 0-3.5-.4-3.8-.9-.3-.4-2.2-1.1-4.3-1.4-2.1-.4-6.3-1.4-9.3-2.3-3-.9-7.3-2-9.5-2.4-7-1.5-11.9-2.7-16.5-3.9-2.5-.7-6.2-1.7-8.2-2.2-6.3-1.5-11-2.7-17.3-4.4-3.3-.9-7.6-2-9.5-2.5-1.9-.5-7.1-1.9-11.5-3-4.4-1.2-9.8-2.6-12-3-2.2-.5-5.8-1.3-8-1.9-2.2-.5-6.9-1.7-10.5-2.6-3.6-.9-8.1-2-10-2.5-1.9-.5-4.8-1.2-6.5-1.6-1.6-.3-6.8-1.6-11.5-2.9-4.7-1.3-9.6-2.5-11-2.8-1.4-.3-7-1.7-12.5-3.2-5.5-1.5-11.1-2.9-12.5-3.2-1.4-.2-3.4-.8-4.5-1.3s-3.6-1.1-5.5-1.4c-1.9-.3-6-1.3-9-2.2-3-.9-7.3-2-9.5-2.4-2.2-.5-6.5-1.6-9.5-2.4-3-.9-7.5-2.1-10-2.7-2.5-.5-6.1-1.4-8-1.9-1.9-.5-6.4-1.6-10-2.5-3.6-.9-8.1-2-10-2.5-1.9-.5-6.8-1.6-10.8-2.5-4.1-.9-8.6-2.1-10-2.7-1.5-.5-4.9-1.3-7.7-1.8-2.7-.4-5.8-1.1-6.9-1.5-1.4-.6-1.7-.4-1.4 1.1zm87.5 40c-.3.3-1.2.4-1.9.1-.8-.3-.5-.6.6-.6 1.1-.1 1.7.2 1.3.5zm-3.2 4.9c1.7.4 3.9 1 5 1.5s5.8 1.6 10.4 2.5c4.7.9 9.3 2.1 10.2 2.6 1 .5 3.2.9 4.9.9 3.5 0 12.9 2.8 14.5 4.2 1.4 1.3-12.1-.9-20-3.3-7.2-2.1-20.3-5.2-24-5.6-2.2-.3-4.4-.9-4.9-1.4-.6-.5-2.2-.9-3.7-.9s-3.1-.5-3.5-1.1c-.7-1.1 4.6-.9 11.1.6zm55.2 1.2c-.8.7-3.7-.9-3.1-1.9.3-.5 1.2-.4 2 .3.8.6 1.3 1.4 1.1 1.6zM122 200c6 1.5 7.9 3.4 2.5 2.4-2.2-.3-4.8-1.1-5.7-1.5-.9-.5-3-.9-4.7-.9-1.6 0-3.3-.5-3.7-1.1-.8-1.3 4.3-.8 11.6 1.1zm-109.7 2.7c2 .3 3.7.9 3.7 1.4 0 1.3-1.4 1.1-7.6-.7-5.5-1.6-7.7-3.2-2.6-1.9 1.5.3 4.4.9 6.5 1.2zM158 202c0 .5-.9 1-1.9 1-1.1 0-2.3-.5-2.6-1-.4-.6.5-1 1.9-1s2.6.4 2.6 1zm-123.3 6.8c-2 .2-4.5-.2-5.6-.7-1.1-.6-3.2-1.1-4.8-1.1-1.8 0-2.4-.3-1.5-.8.7-.5 4.5-.1 8.4.7 6.2 1.4 6.7 1.6 3.5 1.9zm114.7-2.2c6.7 1.1 7.9 1.5 7 2.4-.5.5-2.5.5-4.9-.1-2.2-.6-5.5-1.3-7.2-1.6-1.8-.3-3.3-1-3.3-1.5 0-.6 1.1-.7 2.6-.4 1.5.4 4 .9 5.8 1.2zm-97.8 4.9c7.2 1.9 7.8 2.5 2.6 2.5-2.2 0-4.4-.5-4.7-1-.3-.6-2.1-1-3.8-1-1.8 0-3.9-.5-4.7-1-2.4-1.5 4-1.2 10.6.5zm90.7 0c7 1.6 8.3 2.5 3.7 2.5-3.1 0-7.6-1.1-12.5-3.1-3.5-1.4 2.2-1 8.8.6zm23.2-.5c.8 1.3-2.5 1.3-4.5 0-1.2-.8-.9-1 1.2-1 1.5 0 3 .4 3.3 1zm7.5 2c0 .5-.9 1-1.9 1-1.1 0-2.3-.5-2.6-1-.4-.6.5-1 1.9-1s2.6.4 2.6 1zm38.9 2c4.1 1.1 8.5 2 9.8 2 1.2 0 2.3.4 2.3 1 0 .5.9 1 1.9 1 1 0 6.2 1.1 11.5 2.5s10.9 2.5 12.6 2.5c1.6 0 3.2.4 3.5 1 .3.5 1.8 1 3.3 1 1.5.1 3.8.7 5.2 1.5 1.4.8 3.9 1.4 5.7 1.5 1.7 0 3.5.4 3.8 1 .3.5 1.5 1 2.6 1 1 0 1.9.4 1.9 1 0 1.2-.3 1.2-3.2.1-1.3-.5-5.9-1.7-10.3-2.6-4.4-.9-9.6-2.1-11.6-2.6s-4.6-.9-5.8-.9c-1.1 0-2.1-.4-2.1-.8s-2.6-1.3-5.7-2c-3.2-.7-7.6-1.7-9.8-2.2-2.2-.6-6-1.4-8.5-2-12.6-2.6-20.5-5.2-19.3-6.4.4-.4 1.7-.4 2.8-.1 1.1.3 5.3 1.5 9.4 2.5zm-142.6.7c1.5.3 3 1 3.4 1.6.4.7-.2.8-1.8.3-1.3-.4-3.5-.9-4.9-1-4-.5-4.2-.5-3.5-1.7.4-.6 1.4-.7 2.4-.4.9.4 2.8.9 4.4 1.2zm95 .9c2 .3 3.7 1 3.7 1.5 0 1.9-7.8.7-14.5-2.2-2.1-1 3.6-.6 10.8.7zm23.2-.6c.3.5 1.8 1.1 3.3 1.1 1.9.1 2.1.3.7.5-1.1.2-4.2-.2-7-1l-5-1.4 3.7-.1c2-.1 4 .3 4.3.9zm-33.2 5.3c5 1.4 3.3 2.9-1.8 1.6-2.2-.6-5.5-1.3-7.2-1.6-1.8-.3-3.3-1-3.3-1.5 0-1.1 6-.4 12.3 1.5zm20.2-1.3c.3.5-.3 1-1.4 1-1.2 0-2.1-.5-2.1-1 0-.6.6-1 1.4-1 .8 0 1.8.4 2.1 1zm37.5 1.7c3 .8 7.5 1.8 10 2.3 2.5.4 6.9 1.5 9.9 2.5 3 .9 7.7 2.1 10.5 2.6 2.8.6 6.5 1.3 8.1 1.6 1.7.3 3.5.9 4 1.3.9.7 6.5 2 15.7 3.7 1.5.3 2.5.9 2.2 1.4-.8 1.3-4.2 1.1-8.9-.5-5.9-2-13.1-3.6-16.5-3.6-1.6 0-3.2-.5-3.5-1-.3-.6-1.8-1-3.3-1-1.5-.1-3.8-.7-5.2-1.5-1.4-.8-3.7-1.4-5.2-1.5-1.5 0-5.3-.7-8.5-1.6-3.2-.9-7.8-2-10.3-2.5-2.4-.5-4.9-1.4-5.4-1.9-.6-.6-2.2-1-3.7-1s-3.1-.5-3.5-1.1c-.8-1.3 5.2-.5 13.6 1.8zm-27 .4c2.5.6 6.5 1.4 9 1.8 2.5.5 7 1.6 10 2.6 3 .9 8 2 11 2.5s7.3 1.4 9.5 2c2.2.6 6 1.5 8.5 2s7.2 1.6 10.5 2.5c3.3 1 7.8 2.1 10 2.5 2.2.5 5.8 1.4 8 2 4.6 1.3 11.5 2.9 13 3 1.4 0-.7 1.7-3.1 2.4-1.3.4-2.8.1-3.5-.7-.8-.7-3.9-1.8-6.9-2.4-3-.7-7.5-1.7-10-2.3-4.4-1.1-9.6-2.3-15.5-3.5-1.6-.4-5-1.3-7.5-2s-7.2-1.8-10.5-2.6c-3.3-.7-7.2-1.8-8.7-2.6-1.5-.7-3.8-1.3-5.2-1.3-2.4 0-10-1.8-16.1-3.8-1.6-.6-4.7-1.3-6.7-1.7-2.1-.3-4-1.1-4.4-1.7-.5-.8 0-.9 1.7-.4 1.3.4 4.4 1.2 6.9 1.7zm-88.3.5c-.3.3-1.2.4-1.9.1-.8-.3-.5-.6.6-.6 1.1-.1 1.7.2 1.3.5zm45.5 2.7c4 1.4 5.9 2.7 4 2.7-1.6 0-12.4-2.9-13-3.5-1-1 5.4-.4 9 .8zm27.1.4c-.7.2-1.9.2-2.5 0-.7-.3-.2-.5 1.2-.5s1.9.2 1.3.5zm6.4 1.9c-.3.3-1.2.4-1.9.1-.8-.3-.5-.6.6-.6 1.1-.1 1.7.2 1.3.5zm17 2.5c2.7.6 5.6 1.5 6.5 2 1 .5 2.7.9 3.9.9 2.3 0 14.2 2.8 17.4 4.1 1.1.4 3.8 1 6 1.2 2.2.2 6.7 1.2 10 2.2 3.3 1 7.8 2.1 10 2.6 12.4 2.5 17.5 4.2 17.5 5.9 0 1.6-5.6 1.2-7-.5-.7-.8-2.1-1.5-3.1-1.5-2.5 0-11-2-13.1-3.1-1-.5-2.8-.9-4-.9-1.3 0-5.7-1-9.8-2.1-4.1-1.2-9.5-2.5-12-2.9-2.5-.5-8.3-1.8-13-3-4.7-1.2-10.3-2.7-12.5-3.2-2.2-.6-4.9-1.4-6-1.8-3.2-1.3 3.5-1.2 9.2.1zm94.6 3.5c1.1 1.1-.3 2.4-1.8 1.8-.8-.4-1.2-1-.9-1.5.6-1.1 1.8-1.2 2.7-.3zm29.2.9c2.2.8 4.9 1.5 6.1 1.5 2.6 0 3.4.8 2.7 2.6-.3.8-1 1-2.1.5-2.1-1.1-7.7-2.7-11.9-3.6-1.8-.4-3.3-1.1-3.3-1.6 0-1.3 3.9-1 8.5.6zm-127 2.5c.8 1.3-3.5 1.3-5.5 0-1.1-.7-.7-1 1.7-1 1.7 0 3.5.4 3.8 1zm14.8 2.6c4.7 1.2 6.5 2 5.8 2.7-.7.7-2.6.7-5.8-.2-2.7-.7-6.3-1.5-8.1-1.8-1.8-.3-3.5-.9-3.8-1.4-.8-1.4 4.4-1.1 11.9.7zm79.6-.5c2 .7 4.5 1.5 5.6 1.9 1.9.8 1.9.8.1 1.6-1.1.4-3.2.2-5-.6-1.7-.7-4.3-1.5-5.9-1.7-1.5-.3-3-.9-3.3-1.4-.7-1.3 4.3-1.1 8.5.2zm22.1-.1c0 .5-.4 1-1 1-.5 0-1-.5-1-1 0-.6.5-1 1-1 .6 0 1 .4 1 1zm29.4-.1c.3.4 2.4 1.1 4.6 1.5 3.5.5 4.1 1 3.8 2.8-.3 2.3-5.2 5.8-6.4 4.6-.4-.4-.7-1.8-.8-3-.1-2.2-3.6-4-3.6-1.9 0 .6-.9 1.1-2 1.1-2.3 0-2.3 0-1-3.4.9-2.5 4.3-3.6 5.4-1.7zm-11.5 3.7c.9.8-1.9 5.4-4.2 6.9-2.2 1.4-2.7 1.4-6.8-.5-2.4-1.1-5.4-2-6.6-2-1.3 0-2.3-.5-2.3-1 0-.6-.4-1-1-1-.5 0-1 .7-1 1.5s-.4 1.5-.9 1.5c-2.3 0-4.1-1.4-4.1-3.1 0-1.4.7-1.9 2.9-1.9 1.7 0 3.2.4 3.5.9.3.4 2.5 1.1 4.8 1.5 2.4.3 5.8.9 7.6 1.2 2.6.5 3.2.3 3.2-1.1 0-1-.8-2.4-1.7-3.1-1.6-1.1-1.3-1.2 2.2-.7 2.2.3 4.2.7 4.4.9zm-101.4 1.3c2.5 1 10.5 3.1 16.5 4.2 2.5.5 6.5 1.4 9 2 2.5.6 6.5 1.3 9 1.6 2.5.3 4.9.9 5.4 1.4.6.5 1.8.9 2.9.9 1.4 0 1.7-.5 1.2-2-.6-1.7-.2-2 2.9-2 3.4 0 4.7 1.2 2.6 2.5-.5.3-.7 1.2-.4 1.9.6 1.6-4 4.8-5.2 3.6-.5-.5-3.8-1.6-7.4-2.5-3.6-.9-7.4-2-8.5-2.5-1.1-.5-3.6-1.1-5.5-1.3-5.4-.8-12.4-2.7-13.4-3.8-.6-.5-2.9-.9-5.3-.9-2.3 0-5.2-.4-6.5-.9-1.3-.5-3.5-1.2-5-1.5-1.6-.4-2.8-1-2.8-1.4 0-.9 7.7-.4 10.5.7zm-23 2.1c.4.6-.5 1-1.9 1s-2.6-.5-2.6-1c0-.6.9-1 1.9-1 1.1 0 2.3.4 2.6 1zm-151 5.1c.7.7-.5.9-3.4.7-2.7-.2-4.6-.9-4.9-1.7-.4-1.1.3-1.2 3.4-.7 2.2.4 4.4 1.2 4.9 1.7zM217 251c0 1.3-1.1 1.3-3 0-1.2-.8-1.1-1 .8-1 1.2 0 2.2.4 2.2 1zm95.8.8c4.4.4 5 1 3 3s-4.5 1.4-8-1.9c-2.2-2.1-2.6-2.9-1.3-2.4 1.1.5 3.9 1 6.3 1.3zm-251 1.4c1.8 1.8 1.5 2.6-1 2.2-7.9-1.1-9.8-1.6-9.3-2.5.9-1.3 8.9-1.1 10.3.3zm178.1 2.4c.2.2-1 .4-2.7.4-1.7 0-3.4-.4-3.7-1-.5-.9 5.3-.3 6.4.6zm18.4 3c2.6.3 4.7.8 4.7 1.1 0 .3-1 1.5-2.2 2.7-1.3 1.2-3.4 3.5-4.6 5l-2.4 2.8-1.4-2.1c-.9-1.2-2.4-2.1-3.5-2.1-3.2 0-2.1-1.9 1.4-2.2 4.2-.4 4.2-3 0-4.3-4.8-1.6-5.3-2.8-.8-2.1 2.2.4 6.1 1 8.8 1.2zm-7.3 13.3c0 1-5.8 3.6-6.6 2.9-.2-.3-.2-1.3.2-2.2.6-1.7 6.4-2.4 6.4-.7zm-11 5.1c0 .5-.5 1-1.1 1-.7 0-.9.9-.5 2.3.3 1.4-.1 3.3-1 4.5-1.6 2.3-4.4 3-4.4 1.1 0-.6-.6-.9-1.3-.6-2 .8-4.1-.9-3.4-2.7.4-.9 1.8-1.6 3.2-1.6 1.4 0 2.5-.5 2.5-1.1 0-1.4 3-3.8 4.8-3.9.6 0 1.2.4 1.2 1zm-6.2 13.2c2.5 1.3 2.8 2.5.8 4.7-.7.9-2.6 4-4.2 6.9-2.7 4.9-2.8 5.4-1.1 6.3.9.6 1.4 1.5 1.1 2.1-1 1.6-2.5 7.8-3 12.8-.3 2.5-1.4 6.5-2.5 8.9-1.3 2.9-1.6 4.8-.9 5.5 1 1.3-1.2 10.2-3 12-1.2 1.2-1.3 12.3-.1 13 .8.5 2.6 10.9 3.5 20.5.6 5.9-.4 8.1-3.5 8.1-1.6 0-1.9.8-1.9 4.8 0 3.5-.5 5.4-1.9 6.6-1.7 1.6-1.9 1.5-2.5-1.5-1-5.4-.7-8 1.4-10.3 1.7-1.7 2.2-3.8 2.5-11 .3-4.9.1-9.4-.4-10-2-2.6-3.1-7.9-1.9-9.3.8-1 .8-2-.2-3.8-1.1-2-1.1-3.3-.1-6.7 3.4-11.6 3.4-11.7 2.3-13.1-1.3-1.5-.6-4.5 2.8-12.2 2.9-6.5 6.3-24.5 4.9-26.1-.7-.9-.3-1.9 1.3-3.4l2.3-2.2-2.2-1.5c-1.3-.9-2.3-2-2.3-2.5 0-1.1 5.4-.2 8.8 1.4zm200.7 4.8c3.7.8 6.1 1.3 12.3 2.6 1.2.2 2.2.8 2.2 1.2 0 1-9.3.2-10.4-.9-.6-.5-2.9-.9-5.1-.9-3 0-4.7-.6-6.1-2.2-1.9-2.1-1.9-2.1.6-1.4 1.4.4 4.3 1.2 6.5 1.6zm7 20c.3.5 1.7 1 2.9 1 1.3 0 2.9.7 3.6 1.5 1.1 1.3.7 1.5-2.7 1.5-3.3 0-4.2-.4-5.1-2.5-1.1-2.4 0-3.6 1.3-1.5zm-264 29c.3.6-.1.7-.9.4-1.8-.7-2.1-1.4-.7-1.4.6 0 1.3.4 1.6 1zM448 354.6c0 .8-.4 1.2-1 .9-.5-.3-1-1-1-1.6 0-.5.5-.9 1-.9.6 0 1 .7 1 1.6zm-2.3 27.1c-1.5 1.6-1.7 1.6-1.7.1 0-.9.6-1.8 1.3-2.1 2-.7 2.2.2.4 2zm-260.1 36c-1 1-1.9-.5-1-1.8.6-1.1.8-1.1 1.2 0 .2.7.1 1.5-.2 1.8zm-5 15c-1 2.6-1.8.8-.9-2.3.5-2.1.8-2.4 1.1-1.1.2 1 .1 2.5-.2 3.4zm-2.5 7.6c-1.3 1.3-1.5-.1-.4-3 .7-1.7.8-1.7 1.1.1.2 1-.1 2.3-.7 2.9zM19.5 152c.3.5 1.3 1 2.1 1s1.2-.5.9-1c-.3-.6-1.3-1-2.1-1s-1.2.4-.9 1zM30 154.7c1.4.2 3.9 1.1 5.7 1.9 1.7.8 4.5 1.4 6.2 1.4 1.7 0 3.1.4 3.1 1 0 .5 1.4 1 3.1 1 1.7 0 3.9.5 5 1 1.1.6 3.5 1.3 5.5 1.6 1.9.2 4.4.9 5.4 1.4 1 .6 3.2 1 4.9 1 1.7 0 3.1.4 3.1 1 0 .5 1.8 1 3.9 1 2.2 0 4.2.4 4.5.9.3.5 2.6 1.2 5.1 1.5 2.4.4 4.7 1.1 5 1.7.7 1.1 8.5 1.2 8.5.1 0-.4-3.7-1.6-8.2-2.6-4.6-1.1-8.7-2.3-9.3-2.7-.5-.3-2.6-.9-4.5-1.2-8-1.3-20.5-4.4-23.2-5.8-1-.5-3.1-.9-4.8-.9-1.7 0-3.8-.4-4.8-.9-2.7-1.4-10.9-3.1-14-3-2.6.2-2.6.2-.2.6zM103.5 173c-.4.6.6 1 2.2 1 2.2 0 2.5-.2 1.3-1-1.9-1.2-2.7-1.2-3.5 0zM112.3 175.7c.9.2 2.3.2 3 0 .6-.3-.1-.5-1.8-.5-1.6 0-2.2.2-1.2.5zM122.5 178c.3.5 1.3 1 2.1 1s1.2-.5.9-1c-.3-.6-1.3-1-2.1-1s-1.2.4-.9 1zM129.5 180c-.4.6.9 1 3.2.9 3 0 3.4-.2 1.8-.9-2.7-1.2-4.3-1.2-5 0zM139.5 183c2.8 1.2 6.7 1.2 6 0-.3-.6-2.3-1-4.3-.9-3 0-3.3.2-1.7.9z"/><path d="M147.5 185c.3.5 2 1 3.6 1 1.8 0 2.8-.4 2.4-1-.3-.6-2-1-3.6-1-1.8 0-2.8.4-2.4 1zM157 187c0 .5 1.7 1 3.8.9 3.3-.1 3.4-.2 1.2-.9-3.6-1.1-5-1.1-5 0zM165 188.9c0 1.1 2.5 2.1 5.1 2.1 2.6 0 2.4-1.6-.3-2.4-3.2-.8-4.8-.7-4.8.3zM175.5 192c.3.5 2.3 1 4.3 1 2.8 0 3.3-.3 2.2-1-2-1.3-7.3-1.3-6.5 0zM185.5 194.1c-1.5.6-1.1.8 1.8.8 2 .1 3.7-.1 3.7-.3 0-.9-3.7-1.2-5.5-.5zM193 197c0 .5 1.8 1 3.9 1 2.2 0 4.3.4 4.6 1 .3.5 2.5 1 4.8.9 4.5 0 4-.5-3.4-2.8-4.4-1.4-9.9-1.4-9.9-.1zM212.1 201.4c1.1.9 6.9 1.4 6.9.6 0-.6-1.6-1-3.7-1-2 0-3.4.2-3.2.4zM221.5 204c.3.5 1.7 1 3.1 1 1.3 0 2.4-.5 2.4-1 0-.6-1.4-1-3.1-1-1.7 0-2.8.4-2.4 1zM230.5 206c-.4.6.7 1 2.7 1 2.5 0 2.9-.3 1.8-1-1.9-1.3-3.7-1.3-4.5 0zM241.3 208.7c.9.2 2.3.2 3 0 .6-.3-.1-.5-1.8-.5-1.6 0-2.2.2-1.2.5zM259.5 213c-.4.6.3 1 1.4 1 2.5 0 2.7-.6.6-1.3-.8-.4-1.7-.2-2 .3zM270.8 215.7c.7.3 1.6.2 1.9-.1.4-.3-.2-.6-1.3-.5-1.1 0-1.4.3-.6.6zM279 218c0 .5.5 1 1.1 1 .5 0 .7-.5.4-1-.3-.6-.8-1-1.1-1-.2 0-.4.4-.4 1zM288.3 220.7c.9.2 2.3.2 3 0 .6-.3-.1-.5-1.8-.5-1.6 0-2.2.2-1.2.5zM447.8 220.7c.7.3 1.6.2 1.9-.1.4-.3-.2-.6-1.3-.5-1.1 0-1.4.3-.6.6zM297.3 222.7c.9.2 2.3.2 3 0 .6-.3-.1-.5-1.8-.5-1.6 0-2.2.2-1.2.5zM306 225c0 .5 1.2 1 2.6 1 1.4 0 2.3-.4 1.9-1-.3-.6-1.5-1-2.6-1-1 0-1.9.4-1.9 1zM315.8 227.7c1.2.2 3 .2 4 0 .9-.3-.1-.5-2.3-.4-2.2 0-3 .2-1.7.4zM324.5 230c.3.5 1.3 1 2.1 1s1.4-.5 1.4-1c0-.6-.9-1-2.1-1-1.1 0-1.7.4-1.4 1zM337 232c0 .5.5 1 1.1 1 .5 0 .7-.5.4-1-.3-.6-.8-1-1.1-1-.2 0-.4.4-.4 1zM360.5 232c-.3.5.1 1 .9 1s1.8-.5 2.1-1c.3-.6-.1-1-.9-1s-1.8.4-2.1 1zM351.5 236.1c-2.4 2.5-2.7 3.2-1.5 3.9 2.1 1.4 2.2 1.3 5.2-2.4 2.3-2.8 2.5-3.5 1.2-4-2-.8-1.4-1-4.9 2.5zM343.3 234.7c.9.2 2.5.2 3.5 0 .9-.3.1-.5-1.8-.5-1.9 0-2.7.2-1.7.5zM0 296v61.2l2.2-.6c1.3-.4 3.6-.9 5.1-1.3 2.7-.6 2.9-.8 2.3-4.8-.4-2.4-.2-5.4.5-7.1.7-1.6 1.1-3.5 1-4.3-.5-2.7.9-6 2.9-6.6 2.6-.8 5.3-6.1 4.6-9-.4-1.5.4-3.4 2.4-6.1 1.6-2.1 3-4.8 3-6 0-1.1 1-3 2.3-4.2 1.2-1.2 3.9-3.8 5.9-5.8l3.8-3.8-.7-16c-.6-15.3-.8-16.3-3.5-20.9-1.6-2.7-3.5-6.3-4.2-8.2-.8-1.8-3.6-5.6-6.3-8.4-3.9-4-5.6-5.1-8.1-5.1-1.7 0-3.3-.4-3.6-.9-.3-.4-1.8-1.1-3.3-1.4-1.6-.3-3.6-.9-4.5-1.2C.1 234.8 0 238.1 0 296zM356 243.5c0 1.1 1.2 1.5 5 1.5 5.6 0 6.7-1.4 1.9-2.4-5-1-6.9-.7-6.9.9zM376.2 248.1c.4 1.3 2.2 1.9 11.3 3.9 6.5 1.4 13.4 3.5 14.1 4.3.4.4 2.1.7 3.7.7 1.7 0 4.4.4 6.1.9 8.5 2.6 21.8 6 34.4 8.9 3.6.8 4.2.7 4.2-.7 0-1.7-5.5-3.7-13.3-4.8-2-.3-4-.9-4.3-1.4-.3-.5-2-.9-3.9-.9s-3.6-.4-3.9-.9c-.3-.4-2.5-1.1-4.8-1.4-2.4-.4-6.8-1.4-9.8-2.3-3-.9-7.3-2-9.5-2.4-2.2-.4-6.5-1.5-9.5-2.4-8.2-2.5-15.4-3.2-14.8-1.5zM436.5 258c-.4.6.3 1 1.4 1 2.5 0 2.7-.6.6-1.3-.8-.4-1.7-.2-2 .3zM444.8 260.7c.7.3 1.6.2 1.9-.1.4-.3-.2-.6-1.3-.5-1.1 0-1.4.3-.6.6zM403 267c-1.2.7-.8 1.1 1.8 1.6 1.8.4 3.5 1.1 3.8 1.5.3.5 2.2.9 4.3.9 2.1 0 4.1.3 4.5.7.8.9 10.2 3.2 16.1 4 2.2.3 4.4.9 5 1.4.5.5 2.4.9 4.1.9 1.8 0 3.6.4 3.9 1 1 1.7 3.5 1.1 3.5-.8 0-1.9-4.4-3.5-12.8-4.9-1.8-.3-3.5-.9-3.8-1.4-.3-.5-1.9-.9-3.5-.9-3.1 0-12-2.4-15.1-4.1-2.3-1.2-9.9-1.1-11.8.1zM446 328c0 1.3.7 2 2 2 2.4 0 2.7-2.5.4-3.4-2.3-.9-2.4-.8-2.4 1.4zM0 363.9c0 2.4.3 2.8 2 2.4 3-.8 3.6-2.4 1.5-4-2.8-1.9-3.5-1.6-3.5 1.6zM0 383.1c.1 5 .2 5.2 1.5 3.5 1.9-2.5 1.9-6 0-7.6-1.3-1.1-1.5-.5-1.5 4.1zM0 424c0 22.6.1 24 1.9 25 1.1.5 8.4 1 16.5 1 13.9 0 14.6-.1 14.6-2s-3.2-6-4.8-6c-.4 0-2.1.4-3.9.9-5.5 1.6-7.7-2.2-7.5-12.9.1-3-.3-7-.8-8.9-.8-2.9-.6-4.1 1-6.9 1.1-1.8 1.8-3.8 1.5-4.3-.4-.5-3.2-.9-6.4-.9-6.1 0-8.1-1.1-8.1-4.5 0-2.1-1.7-4.5-3.2-4.5-.4 0-.8 10.8-.8 24z"/></svg>