<svg height="40" viewBox="0 0 40 40" width="40" xmlns="http://www.w3.org/2000/svg"><g fill="none" fill-rule="evenodd"><path d="M0 40h40V0H0z" fill="#b8c4cc"/><g fill="#f9fafb"><path d="M10 31.667h20V15H10zm10-22c.733 0 1.333.6 1.333 1.333 0 .734-.6 1.334-1.333 1.334-.734 0-1.334-.6-1.334-1.334 0-.733.6-1.333 1.334-1.333zm9.333 0H23.76C23.2 8.12 21.733 7 20 7c-1.734 0-3.2 1.12-3.76 2.667h-5.574A2.674 2.674 0 0 0 8 12.334V31c0 1.467 1.2 2.667 2.666 2.667h18.667C30.8 33.667 32 32.467 32 31V12.334c0-1.467-1.2-2.667-2.667-2.667z"/><path d="M17.59 30.281h4.819v-3.708H17.59zM17.59 25.338h4.819V21.63H17.59zM17.59 20.094h4.819v-3.708H17.59zM23.795 30.281h4.819v-3.708h-4.819zM23.795 25.338h4.819V21.63h-4.819zM23.795 20.094h4.819v-3.708h-4.819zM11.385 30.281h4.819v-3.708h-4.819zM11.385 25.338h4.819V21.63h-4.819zM11.385 20.094h4.819v-3.708h-4.819z"/></g></g></svg>