<svg height="17" viewBox="0 0 20 17" width="20" xmlns="http://www.w3.org/2000/svg" xmlns:xlink="http://www.w3.org/1999/xlink"><mask id="a" fill="#fff"><path d="m9.97305 0h9.97295v17.021h-9.97295-9.97295v-17.021z" fill="none"/></mask><path d="m9.9731 0c-5.508 0-9.973 4.465-9.973 9.973 0 2.752 1.115 5.244 2.917 7.048 1.382-2.472 4.023-4.144 7.056-4.144s5.674 1.672 7.056 4.144c1.802-1.804 2.917-4.296 2.917-7.048 0-5.508-4.465-9.973-9.973-9.973m0 11.74c-2.44 0-4.418-1.978-4.418-4.418s1.978-4.418 4.418-4.418 4.418 1.978 4.418 4.418-1.978 4.418-4.418 4.418" fill="#fefefe" fill-rule="evenodd" mask="url(#a)"/></svg>