<svg height="40" viewBox="0 0 40 40" width="40" xmlns="http://www.w3.org/2000/svg"><g fill="none" fill-rule="evenodd"><path d="m0 40h40v-40h-40z" fill="#b8c4cc"/><g fill="#f9fafb" transform="translate(8 7)"><path d="m2 24.667h20v-16.667h-20zm10-22c.733 0 1.333.6 1.333 1.333 0 .734-.6 1.334-1.333 1.334-.734 0-1.334-.6-1.334-1.334 0-.733.6-1.333 1.334-1.333zm9.333 0h-5.573c-.56-1.547-2.027-2.667-3.76-2.667-1.734 0-3.2 1.12-3.76 2.667h-5.574c-1.466 0-2.666 1.2-2.666 2.667v18.666c0 1.467 1.2 2.667 2.666 2.667h18.667c1.467 0 2.667-1.2 2.667-2.667v-18.666c0-1.467-1.2-2.667-2.667-2.667z"/><path d="m9.59 23.281h4.819v-3.708h-4.819z"/><path d="m9.59 18.338h4.819v-3.708h-4.819z"/><path d="m9.59 13.094h4.819v-3.708h-4.819z"/><path d="m15.795 23.281h4.819v-3.708h-4.819z"/><path d="m15.795 18.338h4.819v-3.708h-4.819z"/><path d="m15.795 13.094h4.819v-3.708h-4.819z"/><path d="m3.385 23.281h4.819v-3.708h-4.819z"/><path d="m3.385 18.338h4.819v-3.708h-4.819z"/><path d="m3.385 13.094h4.819v-3.708h-4.819z"/></g></g></svg>